<svg xmlns="http://www.w3.org/2000/svg" width="1279" height="650" viewBox="0 0 1279 650"><rect width="100%" height="100%" fill="#FFF"/><path fill="#FFF" d="M310.145 365.345h19.5v13.88h-60v-13.88h21.97v-63.22q0-3.75.22-7.73l-15.59 13.06q-1.35 1.05-2.67 1.31-1.31.26-2.47.04-1.16-.23-2.07-.79-.89-.56-1.34-1.24l-5.86-8.02 33.08-28.13h15.23v94.72Zm74.62-3.37h27.82q3 0 4.77 1.69 1.76 1.68 1.76 4.46v11.1h-74.4v-6.15q0-1.88.79-3.94.78-2.06 2.51-3.71l32.93-33q4.12-4.2 7.38-8.02 3.26-3.83 5.44-7.58 2.18-3.75 3.34-7.61 1.16-3.87 1.16-8.14 0-3.9-1.12-6.86-1.13-2.96-3.19-4.99-2.06-2.02-4.95-3.04-2.89-1.01-6.49-1.01-3.3 0-6.11.94-2.82.94-4.99 2.62-2.17 1.69-3.67 3.94t-2.25 4.95q-1.28 3.45-3.3 4.58-2.03 1.12-5.86.52l-9.75-1.72q1.13-7.8 4.36-13.69 3.22-5.89 8.06-9.83 4.83-3.93 11.1-5.92 6.26-1.99 13.46-1.99 7.5 0 13.73 2.21 6.22 2.22 10.65 6.27 4.42 4.04 6.89 9.75 2.48 5.7 2.48 12.67 0 6-1.76 11.1-1.77 5.1-4.73 9.75-2.96 4.65-6.93 9-3.98 4.35-8.33 8.85l-24.45 24.98q3.53-1.06 7.01-1.62 3.49-.56 6.64-.56Zm48.23-91.2h74.92v8.03q0 3.59-.75 5.81-.75 2.21-1.5 3.71l-41.1 84.6q-1.27 2.63-3.6 4.46-2.32 1.84-6.22 1.84h-13.43l41.93-82.88q1.42-2.54 2.81-4.68 1.39-2.14 3.11-4.09h-51.9q-1.72 0-3-1.27-1.27-1.28-1.27-3v-12.53Zm104.77 32.55q0 9.07 4.69 13.84 4.69 4.76 13.31 4.76 4.5 0 8.03-1.42 3.52-1.43 5.92-3.91 2.4-2.47 3.64-5.84 1.24-3.38 1.24-7.28 0-4.42-1.35-7.91t-3.83-5.89q-2.47-2.4-5.89-3.67-3.41-1.28-7.46-1.28-4.2 0-7.57 1.39-3.38 1.39-5.78 3.86-2.4 2.48-3.67 5.89-1.28 3.41-1.28 7.46Zm-9.07 75.9 33.67-42.07q1.28-1.58 2.4-3.08 1.13-1.5 2.18-3-3.75 2.4-8.25 3.64-4.5 1.24-9.45 1.24-5.63 0-11.03-1.96-5.4-1.94-9.6-5.88-4.2-3.94-6.79-9.75-2.58-5.81-2.58-13.61 0-7.28 2.7-13.66 2.7-6.37 7.57-11.17 4.88-4.8 11.7-7.58 6.83-2.77 15.08-2.77 8.32 0 14.96 2.63 6.64 2.62 11.32 7.35 4.69 4.72 7.2 11.32 2.52 6.6 2.52 14.47 0 5.03-.87 9.53-.86 4.5-2.43 8.66-1.58 4.17-3.83 8.14-2.25 3.98-5.02 7.88l-24.83 35.4q-1.27 1.79-3.82 3.03-2.55 1.24-5.78 1.24h-17.02Zm186.67-24.82-9.82 9.67-25.43-25.42-25.65 25.57-9.82-9.68 25.65-25.72-24.45-24.45 9.75-9.75 24.45 24.45 24.3-24.3 9.9 9.75-24.38 24.38 25.5 25.5Zm115.87-83.63-32.17 39.37-3.75 4.66q3.15-1.58 6.79-2.44 3.63-.86 7.83-.86 6.16 0 11.97 2.02 5.81 2.03 10.23 6.11 4.43 4.09 7.13 10.17 2.7 6.07 2.7 14.17 0 7.57-2.78 14.21-2.77 6.64-7.8 11.59-5.02 4.95-12.11 7.8-7.09 2.85-15.64 2.85-8.7 0-15.6-2.77-6.9-2.78-11.77-7.77-4.88-4.98-7.46-12-2.59-7.01-2.59-15.56 0-7.65 3.11-15.71t9.64-16.77l25.88-34.72q1.34-1.8 3.93-3.07 2.59-1.28 5.96-1.28h16.5Zm-27.97 94.5q4.42 0 8.14-1.5 3.71-1.5 6.37-4.2t4.16-6.34q1.5-3.64 1.5-7.91 0-4.65-1.42-8.36-1.42-3.72-4.05-6.3-2.62-2.59-6.3-3.94-3.68-1.35-8.1-1.35-4.43 0-8.03 1.5-3.6 1.5-6.15 4.16-2.54 2.67-3.97 6.3-1.43 3.64-1.43 7.84 0 4.5 1.24 8.21 1.24 3.71 3.68 6.34 2.44 2.62 6.03 4.09 3.6 1.46 8.33 1.46Zm77.92-77.7-3.82 22.57q3.6-.75 6.9-1.08 3.3-.34 6.37-.34 8.55 0 15.08 2.55 6.52 2.55 10.95 7.05t6.68 10.54q2.25 6.04 2.25 13.01 0 8.63-3.04 15.75-3.04 7.13-8.44 12.19-5.4 5.06-12.79 7.84-7.39 2.77-16.09 2.77-5.1 0-9.67-1.05-4.58-1.05-8.59-2.81t-7.42-4.05q-3.42-2.29-6.12-4.84l5.7-7.88q1.8-2.54 4.73-2.54 1.87 0 3.82 1.2 1.95 1.2 4.47 2.62 2.51 1.43 5.92 2.63t8.21 1.2q5.1 0 9-1.65 3.9-1.66 6.49-4.62 2.59-2.96 3.9-7.05 1.31-4.08 1.31-8.88 0-8.86-5.13-13.84-5.14-4.99-15.19-4.99-7.73 0-15.82 2.85l-11.56-3.3 9-52.65h53.56v7.87q0 3.98-2.48 6.45-2.48 2.48-8.4 2.48h-29.78Zm135.98 37.42q0 14.18-3.04 24.64-3.03 10.46-8.4 17.29-5.36 6.83-12.67 10.16-7.32 3.34-15.79 3.34-8.48 0-15.71-3.34-7.24-3.33-12.57-10.16-5.32-6.83-8.32-17.29-3-10.46-3-24.64 0-14.24 3-24.67 3-10.43 8.32-17.25 5.33-6.82 12.57-10.16 7.23-3.34 15.71-3.34 8.47 0 15.79 3.34 7.31 3.34 12.67 10.16 5.37 6.82 8.4 17.25 3.04 10.43 3.04 24.67Zm-19.13 0q0-11.77-1.72-19.49-1.72-7.73-4.61-12.3-2.89-4.58-6.64-6.42-3.75-1.83-7.8-1.83-3.98 0-7.69 1.83-3.71 1.84-6.56 6.42-2.85 4.57-4.54 12.3-1.69 7.72-1.69 19.49 0 11.78 1.69 19.5 1.69 7.73 4.54 12.3 2.85 4.58 6.56 6.42 3.71 1.84 7.69 1.84 4.05 0 7.8-1.84t6.64-6.42q2.89-4.57 4.61-12.3 1.72-7.72 1.72-19.5Z"/></svg>